<mxfile host="app.diagrams.net" modified="2023-05-24T06:06:11.399Z" agent="Mozilla/5.0 (Windows NT 10.0; Win64; x64) AppleWebKit/537.36 (KHTML, like Gecko) Chrome/113.0.0.0 Safari/537.36 Edg/113.0.1774.42" etag="Erzo5c-fFEa9OGvo2qvX" version="21.3.3" type="github">
  <diagram name="第 1 页" id="07TAsNU0G71G7q-srrRG">
    <mxGraphModel dx="1434" dy="796" grid="1" gridSize="10" guides="1" tooltips="1" connect="1" arrows="1" fold="1" page="1" pageScale="1" pageWidth="827" pageHeight="1169" math="0" shadow="0">
      <root>
        <mxCell id="0" />
        <mxCell id="1" parent="0" />
        <mxCell id="8DFZkq-b6MkBnQhwpDCH-2" value="用户下单" style="whiteSpace=wrap;strokeWidth=2;" vertex="1" parent="1">
          <mxGeometry x="219" y="20" width="79" height="34" as="geometry" />
        </mxCell>
        <mxCell id="8DFZkq-b6MkBnQhwpDCH-3" value="生成订单" style="whiteSpace=wrap;strokeWidth=2;" vertex="1" parent="1">
          <mxGeometry x="219" y="104" width="79" height="34" as="geometry" />
        </mxCell>
        <mxCell id="8DFZkq-b6MkBnQhwpDCH-4" value="生成订单Hash值" style="whiteSpace=wrap;strokeWidth=2;" vertex="1" parent="1">
          <mxGeometry x="194" y="188" width="130" height="34" as="geometry" />
        </mxCell>
        <mxCell id="8DFZkq-b6MkBnQhwpDCH-5" value="将Hash值存入区块链" style="whiteSpace=wrap;strokeWidth=2;" vertex="1" parent="1">
          <mxGeometry x="177" y="272" width="163" height="34" as="geometry" />
        </mxCell>
        <mxCell id="8DFZkq-b6MkBnQhwpDCH-6" value="等待确认" style="whiteSpace=wrap;strokeWidth=2;" vertex="1" parent="1">
          <mxGeometry x="218" y="356" width="81" height="34" as="geometry" />
        </mxCell>
        <mxCell id="8DFZkq-b6MkBnQhwpDCH-7" value="确认是否已付款" style="rhombus;strokeWidth=2;whiteSpace=wrap;" vertex="1" parent="1">
          <mxGeometry x="177" y="440" width="163" height="163" as="geometry" />
        </mxCell>
        <mxCell id="8DFZkq-b6MkBnQhwpDCH-8" value="将付款信息存入区块链" style="whiteSpace=wrap;strokeWidth=2;" vertex="1" parent="1">
          <mxGeometry x="62" y="672" width="177" height="34" as="geometry" />
        </mxCell>
        <mxCell id="8DFZkq-b6MkBnQhwpDCH-9" value="等待付款" style="whiteSpace=wrap;strokeWidth=2;" vertex="1" parent="1">
          <mxGeometry x="289" y="672" width="81" height="34" as="geometry" />
        </mxCell>
        <mxCell id="8DFZkq-b6MkBnQhwpDCH-10" value="等待商家发货" style="whiteSpace=wrap;strokeWidth=2;" vertex="1" parent="1">
          <mxGeometry x="95" y="756" width="112" height="34" as="geometry" />
        </mxCell>
        <mxCell id="8DFZkq-b6MkBnQhwpDCH-11" value="确认是否已发货" style="rhombus;strokeWidth=2;whiteSpace=wrap;" vertex="1" parent="1">
          <mxGeometry x="70" y="859" width="162" height="162" as="geometry" />
        </mxCell>
        <mxCell id="8DFZkq-b6MkBnQhwpDCH-12" value="将发货信息存入区块链" style="whiteSpace=wrap;strokeWidth=2;" vertex="1" parent="1">
          <mxGeometry x="62" y="1090" width="177" height="34" as="geometry" />
        </mxCell>
        <mxCell id="8DFZkq-b6MkBnQhwpDCH-13" value="等待用户确认收货" style="whiteSpace=wrap;strokeWidth=2;" vertex="1" parent="1">
          <mxGeometry x="79" y="1174" width="144" height="34" as="geometry" />
        </mxCell>
        <mxCell id="8DFZkq-b6MkBnQhwpDCH-14" value="确认是否已收货" style="rhombus;strokeWidth=2;whiteSpace=wrap;" vertex="1" parent="1">
          <mxGeometry x="70" y="1277" width="162" height="162" as="geometry" />
        </mxCell>
        <mxCell id="8DFZkq-b6MkBnQhwpDCH-15" value="将收货信息存入区块链" style="whiteSpace=wrap;strokeWidth=2;" vertex="1" parent="1">
          <mxGeometry x="62" y="1508" width="177" height="34" as="geometry" />
        </mxCell>
        <mxCell id="8DFZkq-b6MkBnQhwpDCH-16" value="等待商家确认退款" style="whiteSpace=wrap;strokeWidth=2;" vertex="1" parent="1">
          <mxGeometry x="20" y="1592" width="145" height="34" as="geometry" />
        </mxCell>
        <mxCell id="8DFZkq-b6MkBnQhwpDCH-17" value="确认是否同意退款" style="rhombus;strokeWidth=2;whiteSpace=wrap;" vertex="1" parent="1">
          <mxGeometry x="61" y="1676" width="179" height="179" as="geometry" />
        </mxCell>
        <mxCell id="8DFZkq-b6MkBnQhwpDCH-18" value="将退款信息存入区块链" style="whiteSpace=wrap;strokeWidth=2;" vertex="1" parent="1">
          <mxGeometry x="62" y="1924" width="177" height="34" as="geometry" />
        </mxCell>
        <mxCell id="8DFZkq-b6MkBnQhwpDCH-19" value="" style="curved=1;startArrow=none;endArrow=block;exitX=0.5031645569620253;exitY=1;entryX=0.5031645569620253;entryY=0;rounded=0;" edge="1" parent="1" source="8DFZkq-b6MkBnQhwpDCH-2" target="8DFZkq-b6MkBnQhwpDCH-3">
          <mxGeometry relative="1" as="geometry">
            <Array as="points" />
          </mxGeometry>
        </mxCell>
        <mxCell id="8DFZkq-b6MkBnQhwpDCH-20" value="" style="curved=1;startArrow=none;endArrow=block;exitX=0.5031645569620253;exitY=1;entryX=0.4980769230769231;entryY=0;rounded=0;" edge="1" parent="1" source="8DFZkq-b6MkBnQhwpDCH-3" target="8DFZkq-b6MkBnQhwpDCH-4">
          <mxGeometry relative="1" as="geometry">
            <Array as="points" />
          </mxGeometry>
        </mxCell>
        <mxCell id="8DFZkq-b6MkBnQhwpDCH-21" value="" style="curved=1;startArrow=none;endArrow=block;exitX=0.4980769230769231;exitY=1;entryX=0.5015337423312883;entryY=0;rounded=0;" edge="1" parent="1" source="8DFZkq-b6MkBnQhwpDCH-4" target="8DFZkq-b6MkBnQhwpDCH-5">
          <mxGeometry relative="1" as="geometry">
            <Array as="points" />
          </mxGeometry>
        </mxCell>
        <mxCell id="8DFZkq-b6MkBnQhwpDCH-22" value="" style="curved=1;startArrow=none;endArrow=block;exitX=0.5015337423312883;exitY=1;entryX=0.5030864197530864;entryY=0;rounded=0;" edge="1" parent="1" source="8DFZkq-b6MkBnQhwpDCH-5" target="8DFZkq-b6MkBnQhwpDCH-6">
          <mxGeometry relative="1" as="geometry">
            <Array as="points" />
          </mxGeometry>
        </mxCell>
        <mxCell id="8DFZkq-b6MkBnQhwpDCH-23" value="" style="curved=1;startArrow=none;endArrow=block;exitX=0.5030864197530864;exitY=1;entryX=0.5015337423312883;entryY=0;rounded=0;" edge="1" parent="1" source="8DFZkq-b6MkBnQhwpDCH-6" target="8DFZkq-b6MkBnQhwpDCH-7">
          <mxGeometry relative="1" as="geometry">
            <Array as="points" />
          </mxGeometry>
        </mxCell>
        <mxCell id="8DFZkq-b6MkBnQhwpDCH-24" value="是" style="curved=1;startArrow=none;endArrow=block;exitX=0.034938914745081324;exitY=1;entryX=0.5;entryY=0;rounded=0;" edge="1" parent="1" source="8DFZkq-b6MkBnQhwpDCH-7" target="8DFZkq-b6MkBnQhwpDCH-8">
          <mxGeometry relative="1" as="geometry">
            <Array as="points">
              <mxPoint x="151" y="638" />
            </Array>
          </mxGeometry>
        </mxCell>
        <mxCell id="8DFZkq-b6MkBnQhwpDCH-25" value="否" style="curved=1;startArrow=none;endArrow=block;exitX=0.5015337423312883;exitY=1;entryX=0.21167445762915033;entryY=0;rounded=0;" edge="1" parent="1" source="8DFZkq-b6MkBnQhwpDCH-7" target="8DFZkq-b6MkBnQhwpDCH-9">
          <mxGeometry relative="1" as="geometry">
            <Array as="points">
              <mxPoint x="259" y="638" />
            </Array>
          </mxGeometry>
        </mxCell>
        <mxCell id="8DFZkq-b6MkBnQhwpDCH-26" value="" style="curved=1;startArrow=none;endArrow=block;exitX=0.5580726357425388;exitY=0;entryX=0.8679130526761161;entryY=1;rounded=0;" edge="1" parent="1" source="8DFZkq-b6MkBnQhwpDCH-9" target="8DFZkq-b6MkBnQhwpDCH-7">
          <mxGeometry relative="1" as="geometry">
            <Array as="points">
              <mxPoint x="344" y="638" />
            </Array>
          </mxGeometry>
        </mxCell>
        <mxCell id="8DFZkq-b6MkBnQhwpDCH-27" value="" style="curved=1;startArrow=none;endArrow=block;exitX=0.5;exitY=1;entryX=0.4955357142857143;entryY=0;rounded=0;" edge="1" parent="1" source="8DFZkq-b6MkBnQhwpDCH-8" target="8DFZkq-b6MkBnQhwpDCH-10">
          <mxGeometry relative="1" as="geometry">
            <Array as="points" />
          </mxGeometry>
        </mxCell>
        <mxCell id="8DFZkq-b6MkBnQhwpDCH-28" value="" style="curved=1;startArrow=none;endArrow=block;exitX=0.45353675450762826;exitY=1;entryX=0.43522526855860194;entryY=0;rounded=0;" edge="1" parent="1" source="8DFZkq-b6MkBnQhwpDCH-10" target="8DFZkq-b6MkBnQhwpDCH-11">
          <mxGeometry relative="1" as="geometry">
            <Array as="points">
              <mxPoint x="136" y="825" />
            </Array>
          </mxGeometry>
        </mxCell>
        <mxCell id="8DFZkq-b6MkBnQhwpDCH-29" value="是" style="curved=1;startArrow=none;endArrow=block;exitX=0.49691358024691357;exitY=1;entryX=0.5;entryY=0;rounded=0;" edge="1" parent="1" source="8DFZkq-b6MkBnQhwpDCH-11" target="8DFZkq-b6MkBnQhwpDCH-12">
          <mxGeometry relative="1" as="geometry">
            <Array as="points" />
          </mxGeometry>
        </mxCell>
        <mxCell id="8DFZkq-b6MkBnQhwpDCH-30" value="否" style="curved=1;startArrow=none;endArrow=block;exitX=0.5586018919352252;exitY=0;entryX=0.5375346740638002;entryY=1;rounded=0;" edge="1" parent="1" source="8DFZkq-b6MkBnQhwpDCH-11" target="8DFZkq-b6MkBnQhwpDCH-10">
          <mxGeometry relative="1" as="geometry">
            <Array as="points">
              <mxPoint x="165" y="825" />
            </Array>
          </mxGeometry>
        </mxCell>
        <mxCell id="8DFZkq-b6MkBnQhwpDCH-31" value="" style="curved=1;startArrow=none;endArrow=block;exitX=0.5;exitY=1;entryX=0.4965277777777778;entryY=0;rounded=0;" edge="1" parent="1" source="8DFZkq-b6MkBnQhwpDCH-12" target="8DFZkq-b6MkBnQhwpDCH-13">
          <mxGeometry relative="1" as="geometry">
            <Array as="points" />
          </mxGeometry>
        </mxCell>
        <mxCell id="8DFZkq-b6MkBnQhwpDCH-32" value="" style="curved=1;startArrow=none;endArrow=block;exitX=0.46386192017259975;exitY=1;entryX=0.43522526855860194;entryY=0;rounded=0;" edge="1" parent="1" source="8DFZkq-b6MkBnQhwpDCH-13" target="8DFZkq-b6MkBnQhwpDCH-14">
          <mxGeometry relative="1" as="geometry">
            <Array as="points">
              <mxPoint x="136" y="1243" />
            </Array>
          </mxGeometry>
        </mxCell>
        <mxCell id="8DFZkq-b6MkBnQhwpDCH-33" value="是" style="curved=1;startArrow=none;endArrow=block;exitX=0.49691358024691357;exitY=1;entryX=0.5;entryY=0;rounded=0;" edge="1" parent="1" source="8DFZkq-b6MkBnQhwpDCH-14" target="8DFZkq-b6MkBnQhwpDCH-15">
          <mxGeometry relative="1" as="geometry">
            <Array as="points" />
          </mxGeometry>
        </mxCell>
        <mxCell id="8DFZkq-b6MkBnQhwpDCH-34" value="否" style="curved=1;startArrow=none;endArrow=block;exitX=0.5586018919352252;exitY=0;entryX=0.5291936353829557;entryY=1;rounded=0;" edge="1" parent="1" source="8DFZkq-b6MkBnQhwpDCH-14" target="8DFZkq-b6MkBnQhwpDCH-13">
          <mxGeometry relative="1" as="geometry">
            <Array as="points">
              <mxPoint x="165" y="1243" />
            </Array>
          </mxGeometry>
        </mxCell>
        <mxCell id="8DFZkq-b6MkBnQhwpDCH-35" value="" style="curved=1;startArrow=none;endArrow=block;exitX=0.36736615550174867;exitY=1;entryX=0.5;entryY=0;rounded=0;" edge="1" parent="1" source="8DFZkq-b6MkBnQhwpDCH-15" target="8DFZkq-b6MkBnQhwpDCH-16">
          <mxGeometry relative="1" as="geometry">
            <Array as="points">
              <mxPoint x="93" y="1567" />
            </Array>
          </mxGeometry>
        </mxCell>
        <mxCell id="8DFZkq-b6MkBnQhwpDCH-36" value="" style="curved=1;startArrow=none;endArrow=block;exitX=0.5;exitY=1;entryX=0.24672489082969432;entryY=0;rounded=0;" edge="1" parent="1" source="8DFZkq-b6MkBnQhwpDCH-16" target="8DFZkq-b6MkBnQhwpDCH-17">
          <mxGeometry relative="1" as="geometry">
            <Array as="points">
              <mxPoint x="93" y="1651" />
            </Array>
          </mxGeometry>
        </mxCell>
        <mxCell id="8DFZkq-b6MkBnQhwpDCH-37" value="是" style="curved=1;startArrow=none;endArrow=block;exitX=0.5;exitY=1;entryX=0.5;entryY=0;rounded=0;" edge="1" parent="1" source="8DFZkq-b6MkBnQhwpDCH-17" target="8DFZkq-b6MkBnQhwpDCH-18">
          <mxGeometry relative="1" as="geometry">
            <Array as="points" />
          </mxGeometry>
        </mxCell>
        <mxCell id="8DFZkq-b6MkBnQhwpDCH-38" value="否" style="curved=1;startArrow=none;endArrow=block;exitX=0.7532751091703057;exitY=0;entryX=0.6326338444982513;entryY=1;rounded=0;" edge="1" parent="1" source="8DFZkq-b6MkBnQhwpDCH-17" target="8DFZkq-b6MkBnQhwpDCH-15">
          <mxGeometry relative="1" as="geometry">
            <Array as="points">
              <mxPoint x="209" y="1651" />
              <mxPoint x="209" y="1567" />
            </Array>
          </mxGeometry>
        </mxCell>
        <mxCell id="8DFZkq-b6MkBnQhwpDCH-41" value="用户下单后，电商平台会生成一个订单。&lt;br&gt;&lt;br&gt;&lt;br&gt;&amp;nbsp;生成订单的Hash值，将其存入区块链中。&lt;br&gt;&lt;br&gt;&lt;br&gt;等待区块链确认，确认后进入下一步。&lt;br&gt;&lt;br&gt;&lt;br&gt;判断用户是否已经付款。&lt;br&gt;&lt;br&gt;&lt;br&gt;如果已经付款，将付款信息存入区块链中。&lt;br&gt;&lt;br&gt;&lt;br&gt;如果未付款，等待用户付款。&lt;br&gt;&lt;br&gt;&lt;br&gt;等待商家发货。&lt;br&gt;&lt;br&gt;&lt;br&gt;判断商家是否已经发货。&lt;br&gt;&lt;br&gt;&lt;br&gt;如果已经发货，将发货信息存入区块链中。&lt;br&gt;&lt;br&gt;&lt;br&gt;如果未发货，等待商家发货。&lt;br&gt;&lt;br&gt;&lt;br&gt;等待用户确认收货。&lt;br&gt;&lt;br&gt;&lt;br&gt;判断用户是否已经收货。&lt;br&gt;&lt;br&gt;&lt;br&gt;如果已经收货，将收货信息存入区块链中。&lt;br&gt;&lt;br&gt;&lt;br&gt;如果未收货，等待用户确认收货。&lt;br&gt;&lt;br&gt;&lt;br&gt;等待商家确认退款。&lt;br&gt;&lt;br&gt;&lt;br&gt;判断商家是否同意退款。&lt;br&gt;&lt;br&gt;&lt;br&gt;如果同意退款，将退款信息存入区块链中。&lt;br&gt;&lt;br&gt;&lt;br&gt;如果不同意退款，等待商家确认退款。" style="text;whiteSpace=wrap;html=1;" vertex="1" parent="1">
          <mxGeometry x="520" y="30" width="270" height="800" as="geometry" />
        </mxCell>
      </root>
    </mxGraphModel>
  </diagram>
</mxfile>
